<?xml version="1.0" encoding="utf-8"?>
<!-- Generator: Adobe Illustrator 24.3.0, SVG Export Plug-In . SVG Version: 6.00 Build 0)  -->
<svg version="1.1" id="Layer_1" xmlns="http://www.w3.org/2000/svg" xmlns:xlink="http://www.w3.org/1999/xlink" x="0px" y="0px"
	 viewBox="0 0 309.46 108" style="enable-background:new 0 0 309.46 108;" xml:space="preserve">
<style type="text/css">
	.st0{fill:#FFFFFF;stroke:#24AE5F;stroke-width:4;stroke-miterlimit:10;}
	.st1{fill:#FFFFFF;stroke:#2E3192;stroke-miterlimit:10;}
	.st2{fill:#FFFFFF;}
	.st3{fill:#FFFFFF;stroke:#FFFFFF;stroke-width:2;stroke-miterlimit:10;}
	.st4{fill:#24AE5F;stroke:#24AE5F;stroke-width:4;stroke-miterlimit:10;}
	.st5{fill:#24AE5F;}
</style>
<g>
	<g>
		<path class="st0" d="M124.69,90.31H13.96c-4.79,0-8.68-3.89-8.68-8.68V13.68C5.28,8.89,9.17,5,13.96,5h110.73
			c4.79,0,8.68,3.89,8.68,8.68v67.95C133.37,86.42,129.49,90.31,124.69,90.31z"/>
		<circle class="st1" cx="133.37" cy="31.76" r="4.8"/>
		<circle class="st1" cx="5.28" cy="66.31" r="4.8"/>
		<rect x="128.72" y="21.89" class="st2" width="18.91" height="4.8"/>
		<rect x="-9.46" y="71.44" class="st2" width="18.91" height="4.8"/>
		<circle class="st3" cx="117.86" cy="90.31" r="0.64"/>
	</g>
	<rect x="44.85" y="96.94" class="st4" width="48.47" height="5.67"/>
	<g>
		<g>
			<g>
				<path class="st5" d="M78.94,64.38H55.16V40.47l3.83-3.95h24.03v22.95L78.94,64.38z M56.9,62.63h21.22l3.15-3.79V38.26H59.73
					l-2.83,2.92V62.63z"/>
			</g>
		</g>
		<g>
			<g>
				<path class="st5" d="M75.18,59.59H62.99c-1.44,0-2.61-1.17-2.61-2.61V44.79c0-1.44,1.17-2.61,2.61-2.61h12.19
					c1.44,0,2.61,1.17,2.61,2.61v12.19C77.79,58.42,76.62,59.59,75.18,59.59z M62.99,43.92c-0.48,0-0.87,0.39-0.87,0.87v12.19
					c0,0.48,0.39,0.87,0.87,0.87h12.19c0.48,0,0.87-0.39,0.87-0.87V44.79c0-0.48-0.39-0.87-0.87-0.87H62.99z"/>
			</g>
		</g>
		<g>
			<g>
				<g>
					<g>
						<rect x="83.02" y="43.05" class="st5" width="6.09" height="1.74"/>
					</g>
				</g>
				<g>
					<g>
						<rect x="83.02" y="47.4" class="st5" width="6.09" height="1.74"/>
					</g>
				</g>
				<g>
					<g>
						<rect x="83.02" y="51.75" class="st5" width="6.09" height="1.74"/>
					</g>
				</g>
				<g>
					<g>
						<rect x="83.02" y="56.11" class="st5" width="6.09" height="1.74"/>
					</g>
				</g>
			</g>
			<g>
				<g>
					<g>
						<rect x="49.06" y="43.05" class="st5" width="6.09" height="1.74"/>
					</g>
				</g>
				<g>
					<g>
						<rect x="49.06" y="47.4" class="st5" width="6.09" height="1.74"/>
					</g>
				</g>
				<g>
					<g>
						<rect x="49.06" y="51.75" class="st5" width="6.09" height="1.74"/>
					</g>
				</g>
				<g>
					<g>
						<rect x="49.06" y="56.11" class="st5" width="6.09" height="1.74"/>
					</g>
				</g>
			</g>
		</g>
		<g>
			<g>
				<g>
					<g>
						<rect x="74.75" y="30.43" class="st5" width="1.74" height="6.09"/>
					</g>
				</g>
				<g>
					<g>
						<rect x="70.39" y="30.43" class="st5" width="1.74" height="6.09"/>
					</g>
				</g>
				<g>
					<g>
						<rect x="66.04" y="30.43" class="st5" width="1.74" height="6.09"/>
					</g>
				</g>
				<g>
					<g>
						<rect x="61.69" y="30.43" class="st5" width="1.74" height="6.09"/>
					</g>
				</g>
			</g>
			<g>
				<g>
					<g>
						<rect x="74.75" y="64.38" class="st5" width="1.74" height="6.09"/>
					</g>
				</g>
				<g>
					<g>
						<rect x="70.39" y="64.38" class="st5" width="1.74" height="6.09"/>
					</g>
				</g>
				<g>
					<g>
						<rect x="66.04" y="64.38" class="st5" width="1.74" height="6.09"/>
					</g>
				</g>
				<g>
					<g>
						<rect x="61.69" y="64.38" class="st5" width="1.74" height="6.09"/>
					</g>
				</g>
			</g>
		</g>
	</g>
	<g>
		<g>
			<path class="st5" d="M155.33,46.33c-0.2,0.49-0.81,1.58-1.84,3.26s-1.74,2.62-2.14,2.81s-0.75,0.29-1.05,0.29
				c-0.42,0-0.93-0.23-1.52-0.69s-0.89-0.94-0.89-1.43c0-0.46,1.47-2.92,4.41-7.4c1.61-2.45,3.07-4.88,4.39-7.28
				c2.66-4.85,4.29-7.67,4.88-8.46s1.2-1.19,1.82-1.19c1,0,1.72,0.26,2.16,0.77c0.22,0.16,0.33,0.56,0.33,1.18
				c0,0.46-0.04,0.83-0.12,1.11c2.14,6.54,3.82,11.17,5.04,13.88s2.43,4.68,3.65,5.9c0.61,0.61,0.98,1.02,1.12,1.23
				s0.2,0.49,0.2,0.84c0,0.64-0.23,1.19-0.7,1.63s-1.03,0.66-1.67,0.66c-0.89,0-1.8-0.52-2.72-1.55s-1.79-2.45-2.6-4.25
				s-1.22-2.82-1.22-3.04c0-0.05-0.03-0.07-0.09-0.07c-0.63,0-2.04,0.22-4.23,0.67s-3.94,0.88-5.26,1.3
				c-0.34,0.11-0.64,0.16-0.9,0.16C155.93,46.65,155.58,46.54,155.33,46.33z M165.46,40.95c-0.28-0.69-1.11-3.15-2.5-7.38
				c-0.13-0.39-0.22-0.63-0.26-0.74l-4.99,9.49c0.74-0.13,1.49-0.25,2.27-0.35c0.52-0.06,1.83-0.3,3.94-0.74
				C164.43,41.13,164.94,41.04,165.46,40.95z"/>
			<path class="st5" d="M195.61,51.17c-0.28,0-0.77-0.04-1.46-0.11c-0.69-0.06-1.2-0.09-1.53-0.09c-3.2,0-6.3,0.47-9.32,1.42
				c-1.24,0.4-2.13,0.6-2.65,0.6c-0.71,0-1.27-0.28-1.67-0.84s-0.6-1.1-0.6-1.62c0-0.21,0.11-0.75,0.32-1.62
				c0.27-1.08,0.49-2.31,0.65-3.69l1.58-14.57c0.13-1.38,0.24-2.28,0.34-2.69s0.35-0.78,0.76-1.11s0.97-0.49,1.67-0.49
				c0.56,0,1.05,0.21,1.48,0.63s0.63,0.88,0.63,1.37c0,0.45-0.11,1.24-0.32,2.39c-0.3,1.64-0.73,4.79-1.28,9.46s-0.83,7.13-0.83,7.4
				c0,0.34,0.06,0.51,0.18,0.51c0.45,0,1.67-0.16,3.67-0.47c0.94-0.15,1.89-0.25,2.85-0.3c2.74-0.13,4.66-0.33,5.77-0.6
				c0.35-0.08,0.61-0.12,0.77-0.12c0.64,0,1.15,0.19,1.51,0.57s0.54,0.83,0.54,1.36c0,0.79-0.31,1.42-0.94,1.89
				S196.4,51.17,195.61,51.17z"/>
			<path class="st5" d="M218.19,51.17c-0.28,0-0.77-0.04-1.46-0.11c-0.69-0.06-1.2-0.09-1.53-0.09c-3.2,0-6.3,0.47-9.32,1.42
				c-1.24,0.4-2.13,0.6-2.65,0.6c-0.71,0-1.27-0.28-1.67-0.84s-0.6-1.1-0.6-1.62c0-0.21,0.11-0.75,0.32-1.62
				c0.27-1.08,0.49-2.31,0.65-3.69l1.58-14.57c0.13-1.38,0.24-2.28,0.34-2.69s0.35-0.78,0.76-1.11s0.97-0.49,1.67-0.49
				c0.56,0,1.05,0.21,1.48,0.63s0.63,0.88,0.63,1.37c0,0.45-0.11,1.24-0.32,2.39c-0.3,1.64-0.73,4.79-1.28,9.46s-0.83,7.13-0.83,7.4
				c0,0.34,0.06,0.51,0.18,0.51c0.45,0,1.67-0.16,3.67-0.47c0.94-0.15,1.89-0.25,2.85-0.3c2.74-0.13,4.66-0.33,5.77-0.6
				c0.35-0.08,0.61-0.12,0.77-0.12c0.64,0,1.15,0.19,1.51,0.57s0.54,0.83,0.54,1.36c0,0.79-0.31,1.42-0.94,1.89
				S218.99,51.17,218.19,51.17z"/>
			<path class="st5" d="M245.39,43.33h0.02c-0.28,0.96-0.56,2.25-0.84,3.88s-0.42,2.8-0.42,3.52c0,1.35-0.01,2.28-0.03,2.79
				s-0.13,0.94-0.33,1.27s-0.46,0.58-0.77,0.76s-0.67,0.27-1.07,0.27c-0.63,0-1.22-0.22-1.75-0.67s-0.8-0.97-0.8-1.56
				c0-0.2,0.16-1.05,0.49-2.57c0.29-1.35,0.53-2.5,0.7-3.46c-3.93,2.91-7.44,4.36-10.55,4.36c-2.1,0-3.76-0.61-5-1.83
				s-1.85-2.89-1.85-5.01c0-3.35,1.01-6.57,3.02-9.65v0.02c2.14-3.21,4.68-5.74,7.6-7.59s5.84-2.78,8.76-2.78
				c1.51,0,2.71,0.28,3.59,0.83s1.32,1.26,1.32,2.12c0,0.71-0.3,1.51-0.91,2.37s-1.21,1.3-1.82,1.3c-0.39,0-0.67-0.08-0.86-0.24
				s-0.38-0.47-0.58-0.94c-0.22-0.53-0.48-0.9-0.76-1.12s-0.71-0.33-1.26-0.33c-1.78,0-3.82,0.88-6.11,2.63s-4.15,3.83-5.57,6.22
				s-2.14,4.68-2.14,6.86c0,2.3,0.98,3.45,2.95,3.45c1.02,0,2.24-0.26,3.66-0.79s2.93-1.35,4.54-2.48s2.57-2.15,2.89-3.08
				s0.57-1.95,0.73-3.06c0.09-0.66,0.34-1.09,0.73-1.31s0.92-0.33,1.59-0.33c1.54,0,2.3,0.52,2.3,1.56c0,0.41-0.2,1.08-0.6,2
				C245.95,41.48,245.66,42.33,245.39,43.33z"/>
			<path class="st5" d="M257.88,34.57c-0.26,1.07-0.42,1.92-0.49,2.55c0,0.34-0.12,1.21-0.35,2.62c-0.39,2.51-0.58,4.22-0.58,5.13
				c0,1.55,0.09,3.07,0.28,4.57c0.14,1.09-0.08,1.88-0.67,2.38s-1.17,0.75-1.76,0.75c-0.83,0-1.42-0.36-1.78-1.08
				s-0.53-1.97-0.53-3.75c0-1.1,0.28-3.73,0.83-7.88l0.97-6.87c0.2-1.01,0.35-1.95,0.44-2.81c0.14-1.28,0.31-2.07,0.52-2.36
				s0.57-0.62,1.1-0.95s0.93-0.5,1.2-0.5c0.68,0,1.2,0.28,1.56,0.83s0.54,1.22,0.54,2.02L257.88,34.57z"/>
			<path class="st5" d="M282.13,30.07c-0.28,0.19-0.62,0.28-1.02,0.28c-0.23,0-0.44-0.02-0.62-0.07c-0.3-0.06-0.81-0.09-1.51-0.09
				c-1.45,0-3.12,0.11-4.98,0.32s-3.15,0.46-3.84,0.74c-0.74,2.23-1.2,4.88-1.37,7.96c0.48-0.07,0.97-0.13,1.46-0.19
				c1.82-0.19,3.51-0.43,5.08-0.72c1.31-0.23,2.37-0.35,3.16-0.35c1.78,0,2.67,0.62,2.67,1.86c0,0.22-0.17,0.52-0.52,0.91
				s-0.72,0.65-1.12,0.82s-1.14,0.32-2.21,0.47l-4.71,0.58c-1.8,0.22-3.14,0.45-4.01,0.67c-0.13,0.06-0.23,0.17-0.29,0.33
				s-0.15,0.87-0.25,2.13s-0.15,2.42-0.15,3.49l0.07,2.23c0,1.38-0.64,2.07-1.93,2.07c-0.66,0-1.28-0.24-1.87-0.72
				s-0.89-1.13-0.89-1.95c0-1.52,0.18-3.71,0.53-6.56c0.02-0.13,0.63-4.46,1.83-12.99c0-0.4-0.06-0.74-0.18-1.02
				c-0.18-0.5-0.26-0.91-0.26-1.21c0-0.42,0.25-0.86,0.75-1.33s0.96-0.69,1.38-0.69c0.28,0,0.57,0.04,0.88,0.11
				c0.43,0.09,0.89,0.14,1.35,0.14c0.46,0,2.33-0.19,5.62-0.56c2.14-0.23,3.74-0.35,4.8-0.35c1.11,0,1.98,0.17,2.59,0.52
				s0.92,0.66,0.92,0.94c0,0.98-0.46,1.74-1.37,2.27V30.07z"/>
			<path class="st5" d="M297.63,31.16c-0.11,0.09-0.2,0.36-0.28,0.79s-0.32,2.45-0.71,6.05s-0.59,6.47-0.59,8.63
				c0,0.89,0.11,1.89,0.32,2.99c0.06,0.16,0.09,0.35,0.09,0.56c0,0.63-0.18,1.2-0.55,1.71s-0.84,0.76-1.42,0.76
				c-0.39,0-0.88-0.19-1.47-0.57s-0.95-1.03-1.06-1.94s-0.18-2.1-0.18-3.57c0-2,0.23-4.99,0.7-8.95s0.75-5.98,0.84-6.06
				c-0.33,0-1.64,0.09-3.94,0.26c-2.31,0.18-3.65,0.26-4.03,0.26c-1.21,0-2.04-0.16-2.51-0.47s-0.7-0.8-0.7-1.47
				c0-0.6,0.25-1.05,0.75-1.37s1.76-0.47,3.79-0.47c3.38,0,6.69-0.22,9.93-0.67c3.66-0.56,6.43-0.84,8.31-0.84
				c2.11,0,3.39,0.25,3.85,0.75s0.69,0.99,0.69,1.49c0,1.14-0.5,1.71-1.51,1.71c-0.33,0-0.86-0.04-1.58-0.11
				c-0.74-0.06-1.6-0.09-2.58-0.09C300.82,30.53,298.77,30.74,297.63,31.16z"/>
		</g>
		<g>
			<path class="st5" d="M171.9,64.74c-0.11,0.09-0.2,0.36-0.28,0.79s-0.32,2.45-0.71,6.05s-0.59,6.47-0.59,8.63
				c0,0.89,0.11,1.89,0.32,2.99c0.06,0.16,0.09,0.35,0.09,0.56c0,0.63-0.18,1.2-0.55,1.71s-0.84,0.76-1.42,0.76
				c-0.39,0-0.88-0.19-1.47-0.57s-0.95-1.03-1.06-1.94s-0.18-2.1-0.18-3.57c0-2,0.23-4.99,0.7-8.95s0.75-5.98,0.84-6.06
				c-0.33,0-1.64,0.09-3.94,0.26c-2.31,0.18-3.65,0.26-4.03,0.26c-1.21,0-2.04-0.16-2.51-0.47s-0.7-0.8-0.7-1.47
				c0-0.6,0.25-1.05,0.75-1.37s1.76-0.47,3.79-0.47c3.38,0,6.69-0.22,9.93-0.67c3.66-0.56,6.43-0.84,8.31-0.84
				c2.11,0,3.39,0.25,3.85,0.75s0.69,0.99,0.69,1.49c0,1.14-0.5,1.71-1.51,1.71c-0.33,0-0.86-0.04-1.58-0.11
				c-0.74-0.06-1.6-0.09-2.58-0.09C175.09,64.1,173.04,64.32,171.9,64.74z"/>
			<path class="st5" d="M202.66,63.79l-5.41,0.28c-1.89,0.11-3.51,0.27-4.87,0.5s-2.09,0.4-2.21,0.53s-0.19,0.48-0.24,1.08
				c-0.06,0.59-0.27,1.62-0.63,3.09c-0.29,1.12-0.47,2.04-0.53,2.76c0.75,0,1.83-0.08,3.23-0.23s2.4-0.3,2.99-0.44
				c1.69-0.41,2.99-0.62,3.92-0.62c1.85,0,2.78,0.55,2.78,1.65c0,0.81-0.26,1.37-0.77,1.68s-1.32,0.52-2.43,0.64
				c-0.68,0.07-1.44,0.18-2.29,0.32c-0.45,0.07-1,0.14-1.67,0.21c-3.25,0.38-5.16,0.67-5.75,0.88h-0.02
				c-0.2,0.06-0.35,0.19-0.45,0.4s-0.28,1.08-0.54,2.61s-0.39,2.6-0.39,3.21c0.06,0.43,0.33,0.65,0.81,0.65
				c0.56,0,2.04-0.16,4.44-0.47s3.88-0.52,4.46-0.64c1.61-0.34,2.65-0.51,3.15-0.51c1.49,0.21,2.23,0.9,2.23,2.07
				c0,0.54-0.18,0.95-0.53,1.23c-1.17,0.53-2.79,0.86-4.87,0.98c-1.61,0.09-3.55,0.29-5.84,0.6c-2.04,0.43-3.96,0.65-5.77,0.65
				c-0.95,0-1.63-0.2-2.06-0.61s-0.67-1.03-0.76-1.89l-0.05-0.58c-0.01-0.09,0.09-0.45,0.3-1.07c0.47-1.44,1.04-4.65,1.72-9.62
				s1.02-7.73,1.02-8.3c0-0.01-0.04-0.06-0.11-0.14c-0.08-0.07-0.22-0.3-0.41-0.68c-0.19-0.38-0.29-0.77-0.29-1.17
				c0-0.21,0.02-0.38,0.07-0.51c0.05-0.25,0.3-0.49,0.76-0.74s0.88-0.37,1.28-0.37c0.55,0,1.11,0.04,1.67,0.11
				c0.97,0,4.14-0.35,9.49-1.05c1.78-0.23,2.71-0.35,2.79-0.35l0.25-0.02c2.11-0.15,3.16,0.53,3.16,2.04c0,0.28-0.19,0.63-0.57,1.05
				S203.01,63.69,202.66,63.79z"/>
			<path class="st5" d="M225.11,79.49c0.89,0,1.34,0.43,1.34,1.3c0,1.08-1.29,2.41-3.88,3.98s-5.08,2.36-7.5,2.36
				c-2.13,0-4.1-0.7-5.89-2.09s-2.69-3.43-2.69-6.1c0-2.72,0.94-5.74,2.81-9.05s4.2-6.02,6.97-8.1s5.48-3.13,8.11-3.13
				c1.57,0,2.82,0.47,3.76,1.41s1.41,2.03,1.41,3.29c0,1.36-0.11,2.33-0.32,2.93s-0.66,1.1-1.35,1.52s-1.25,0.63-1.69,0.63
				c-0.45,0-0.83-0.16-1.16-0.47s-0.49-0.74-0.49-1.28c0-0.38,0.1-0.92,0.3-1.63c0.19-0.71,0.28-1.31,0.28-1.79
				c0-0.81-0.28-1.21-0.83-1.21c-1.69,0-3.58,0.9-5.68,2.71c-2.1,1.8-3.89,4.05-5.39,6.72s-2.24,5.04-2.24,7.09
				c0,1.36,0.39,2.51,1.18,3.45s1.93,1.41,3.45,1.41c0.89,0,2.01-0.24,3.37-0.72s2.6-1.13,3.75-1.95
				C223.9,79.9,224.69,79.49,225.11,79.49z"/>
			<path class="st5" d="M237.91,75.71c-0.3,0.63-0.53,2.38-0.67,5.24c-0.06,1.68-0.29,3.08-0.69,4.2s-0.93,1.69-1.59,1.69
				c-0.74,0-1.36-0.23-1.85-0.69s-0.75-1.13-0.75-2.01c0-0.77,0.17-1.84,0.51-3.2c0.76-3.07,1.61-9.5,2.53-19.28
				c0.06-0.4,0.3-0.78,0.71-1.15s0.85-0.55,1.31-0.55c1.55,0,2.32,0.96,2.32,2.88c0,0.87-0.18,2.24-0.53,4.13
				c-0.41,2.17-0.62,3.75-0.62,4.75c0.09,0.12,0.52,0.18,1.27,0.18c1.64,0,3.97-0.13,6.98-0.39s4.63-0.59,4.86-1s0.47-1.6,0.72-3.56
				s0.38-4.05,0.38-6.27c0-0.33,0.25-0.72,0.74-1.19s1.02-0.69,1.58-0.69c0.64,0,1.18,0.21,1.61,0.62s0.64,0.92,0.64,1.53
				c0,0.88-0.22,2.47-0.65,4.78c-0.49,2.59-0.91,5.91-1.24,9.97s-0.5,6.75-0.5,8.09c0,0.63-0.3,1.26-0.91,1.88s-1.15,0.93-1.63,0.93
				c-0.52,0-1.01-0.19-1.49-0.58s-0.72-0.88-0.72-1.49c0-0.4,0.16-1.76,0.47-4.1c0.32-2.32,0.47-3.91,0.47-4.78
				c0-0.56-0.11-0.84-0.33-0.84c-0.55,0-1.64,0.06-3.27,0.19c-1.64,0.14-2.76,0.21-3.36,0.21c-0.43,0-1.57,0.06-3.4,0.19
				S238,75.61,237.91,75.71z"/>
		</g>
	</g>
</g>
</svg>
